<?xml version="1.0" encoding="UTF-8" standalone="no"?>
<svg
   height="800"
   width="800"
   viewBox="0 0 512 512"
   xml:space="preserve"
   version="1.1"
   id="svg-main"
   sodipodi:docname="logo-nobg.svg"
   inkscape:version="1.2.2 (b0a8486541, 2022-12-01)"
   xmlns:inkscape="http://www.inkscape.org/namespaces/inkscape"
   xmlns:sodipodi="http://sodipodi.sourceforge.net/DTD/sodipodi-0.dtd"
   xmlns:xlink="http://www.w3.org/1999/xlink"
   xmlns="http://www.w3.org/2000/svg"
   xmlns:svg="http://www.w3.org/2000/svg"><sodipodi:namedview
     pagecolor="#ffffff"
     bordercolor="#000000"
     borderopacity="0.25"
     inkscape:showpageshadow="2"
     inkscape:pageopacity="0.0"
     inkscape:pagecheckerboard="0"
     inkscape:deskcolor="#d1d1d1"
     showgrid="false"
     inkscape:zoom="0.92875"
     inkscape:cx="400"
     inkscape:cy="399.46164"
     inkscape:window-width="1920"
     inkscape:window-height="1027"
     inkscape:window-x="0"
     inkscape:window-y="24"
     inkscape:window-maximized="1"
     inkscape:current-layer="svg-main" /><defs
     id="defs14"><linearGradient
       id="b"><stop
         style="stop-color:#292b39;stop-opacity:1"
         offset="0"
         id="stop2" /><stop
         style="stop-color:#111318;stop-opacity:1"
         offset="1"
         id="stop4" /></linearGradient><linearGradient
       id="a"><stop
         style="stop-color:#181a22;stop-opacity:1"
         offset="0"
         id="stop7" /><stop
         style="stop-color:#222430;stop-opacity:1"
         offset="1"
         id="stop9" /></linearGradient><linearGradient
       xlink:href="#a"
       id="d"
       x1="95.69"
       y1="256.01"
       x2="416.31"
       y2="256.01"
       gradientUnits="userSpaceOnUse"
       gradientTransform="matrix(0 -.67164 .67164 0 84.05 427.94)" /><linearGradient
       xlink:href="#b"
       id="c"
       x1="71.04"
       y1="188.16"
       x2="119.04"
       y2="188.16"
       gradientUnits="userSpaceOnUse"
       gradientTransform="matrix(12.3077 0 0 8.88889 -913.72 -1928.54)" /></defs><path
     d="M243.6 150.49c-48.5-.7-96 31.88-105.93 86.5a62.55 62.55 0 0 0-48.37 37l-.03.07c-17.93 41.37 12.61 87.46 57.43 87.46h189.58c50.54 0 91.65-41.11 91.65-91.65 0-58.7-54.86-102.74-112.58-89.25-20.69-20.26-46.36-29.76-71.76-30.13zm-1.45 21.48c22.26.05 44.78 8.85 61.88 27.88a10.74 10.74 0 0 0 11.2 3.07c40.59-12.74 81.82 13.33 89.8 52.98-68.86-.6-138.74.51-197.68-.04a46.95 46.95 0 0 1-23.11-7.3c-8.68-5.74-15.54-9.03-24.78-10.9 9.25-41.59 45.6-65.78 82.7-65.69z"
     style="fill:#fff;stroke:url(#d);stroke-width:4.29848;stroke-dasharray:none;stroke-opacity:1"
     id="path18" /></svg>
