<?xml version="1.0" encoding="UTF-8" standalone="no"?>
<svg
   height="628"
   width="1200"
   viewBox="0 0 768 401.92"
   xml:space="preserve"
   version="1.1"
   id="svg-main"
   sodipodi:docname="og-image.svg"
   inkscape:version="1.2.2 (b0a8486541, 2022-12-01)"
   xmlns:inkscape="http://www.inkscape.org/namespaces/inkscape"
   xmlns:sodipodi="http://sodipodi.sourceforge.net/DTD/sodipodi-0.dtd"
   xmlns:xlink="http://www.w3.org/1999/xlink"
   xmlns="http://www.w3.org/2000/svg"
   xmlns:svg="http://www.w3.org/2000/svg"><sodipodi:namedview
     pagecolor="#ffffff"
     bordercolor="#000000"
     borderopacity="0.25"
     inkscape:showpageshadow="2"
     inkscape:pageopacity="0.0"
     inkscape:pagecheckerboard="0"
     inkscape:deskcolor="#d1d1d1"
     showgrid="false"
     inkscape:zoom="0.70710678"
     inkscape:cx="337.99704"
     inkscape:cy="196.57568"
     inkscape:window-width="1920"
     inkscape:window-height="1027"
     inkscape:window-x="0"
     inkscape:window-y="24"
     inkscape:window-maximized="1"
     inkscape:current-layer="svg-main"
     id="namedview2" /><defs
     id="defs14"><linearGradient
       id="b"><stop
         style="stop-color:#292b39;stop-opacity:1"
         offset="0"
         id="stop2" /><stop
         style="stop-color:#111318;stop-opacity:1"
         offset="1"
         id="stop4" /></linearGradient><linearGradient
       id="a"><stop
         style="stop-color:#181a22;stop-opacity:1"
         offset="0"
         id="stop7" /><stop
         style="stop-color:#222430;stop-opacity:1"
         offset="1"
         id="stop9" /></linearGradient><linearGradient
       xlink:href="#a"
       id="d"
       x1="95.690002"
       y1="256.01001"
       x2="416.31"
       y2="256.01001"
       gradientUnits="userSpaceOnUse"
       gradientTransform="matrix(0,-0.5272374,0.5272374,0,65.97925,335.9329)" /><linearGradient
       xlink:href="#b"
       id="c"
       x1="71.040001"
       y1="188.16"
       x2="119.04"
       y2="188.16"
       gradientUnits="userSpaceOnUse"
       gradientTransform="matrix(0,9.6615445,-13.333334,0,2892.81,-717.2702)" /></defs><path
     style="fill:url(#c);fill-opacity:1;stroke:none;stroke-width:72.6395;stroke-dasharray:none;stroke-opacity:1"
     d="M 768,0 V 401.92 H 0 V 0 Z"
     id="path16" /><path
     id="path18-6"
     style="fill:#0057b8;fill-opacity:1;stroke:none;stroke-width:3.37431;stroke-dasharray:none;stroke-opacity:1"
     d="m 374.26375,118.135 c -38.06273,-0.54593 -75.33839,25.01945 -83.1425,67.87875 l 41.63445,17.663 182.08152,1.31699 -12.44508,-1.35764 13.07536,30.3614 c 2.26476,-6.98196 3.50375,-14.42264 3.50375,-22.15 0,-46.0794 -43.0661,-80.65088 -88.37625,-70.06125 -16.2396,-15.90206 -36.38721,-23.35904 -56.32375,-23.65125 z"
     sodipodi:nodetypes="ccccccsccc" /><path
     id="path18-3"
     style="fill:#ffd700;stroke:none;stroke-width:3.37431;stroke-dasharray:none;stroke-opacity:1;fill-opacity:1"
     d="m 253.14627,215.0825 -0.0238,0.055 c -14.07506,32.47542 9.8988,68.65625 45.0825,68.65625 h 148.82 c 31.94942,0 59.09887,-20.92895 68.45969,-49.79812 2.56998,-19.03513 -3.87279,-33.05539 -22.55339,-33.17498 -51.42249,-0.327 -103.14768,0.43965 -147.11625,0.0294 -6.44434,-0.28947 -12.69983,-2.26529 -18.14125,-5.73 -6.30422,-4.16891 -11.40429,-6.67839 -17.87375,-8.195 -20.71674,-5.72532 -46.3996,4.66018 -56.65375,28.1575 z"
     sodipodi:nodetypes="ccssccccccc" /></svg>
